<mxfile host="app.diagrams.net" agent="Mozilla/5.0 (Windows NT 10.0; Win64; x64) AppleWebKit/537.36 (KHTML, like Gecko) Chrome/128.0.0.0 YaBrowser/24.10.0.0 Safari/537.36" version="25.0.1">
  <diagram name="Страница — 1" id="q6RR6YjrDy-kNDLCSKIT">
    <mxGraphModel dx="1230" dy="-206" grid="0" gridSize="10" guides="1" tooltips="1" connect="1" arrows="1" fold="1" page="0" pageScale="1" pageWidth="827" pageHeight="1169" math="0" shadow="0">
      <root>
        <mxCell id="0" />
        <mxCell id="1" parent="0" />
        <mxCell id="bSMWhBpGFYuzGzkaE9vz-1" value="Запрос&lt;div&gt;регистрации&lt;/div&gt;&lt;div&gt;на курс&lt;/div&gt;" style="edgeStyle=elbowEdgeStyle;curved=0;rounded=0;orthogonalLoop=1;jettySize=auto;html=1;elbow=vertical;fontSize=12;startSize=8;endSize=8;" edge="1" parent="1" source="bSMWhBpGFYuzGzkaE9vz-6" target="bSMWhBpGFYuzGzkaE9vz-19">
          <mxGeometry x="0.0372" y="-4" relative="1" as="geometry">
            <mxPoint x="-10.413793103448143" y="1392.689655172414" as="targetPoint" />
            <Array as="points">
              <mxPoint x="-241" y="1315" />
            </Array>
            <mxPoint as="offset" />
          </mxGeometry>
        </mxCell>
        <mxCell id="bSMWhBpGFYuzGzkaE9vz-2" style="edgeStyle=elbowEdgeStyle;curved=0;rounded=0;orthogonalLoop=1;jettySize=auto;html=1;elbow=vertical;fontSize=12;startSize=8;endSize=8;" edge="1" parent="1">
          <mxGeometry relative="1" as="geometry">
            <mxPoint x="-304.99956521739125" y="1663" as="sourcePoint" />
            <mxPoint x="-185.13" y="1663" as="targetPoint" />
            <Array as="points">
              <mxPoint x="-238.63" y="1663" />
            </Array>
          </mxGeometry>
        </mxCell>
        <mxCell id="bSMWhBpGFYuzGzkaE9vz-3" value="Отправка данных&lt;div&gt;для оплаты&lt;/div&gt;" style="edgeLabel;html=1;align=center;verticalAlign=middle;resizable=0;points=[];fontSize=12;" vertex="1" connectable="0" parent="bSMWhBpGFYuzGzkaE9vz-2">
          <mxGeometry x="-0.1348" y="-1" relative="1" as="geometry">
            <mxPoint x="3" y="2" as="offset" />
          </mxGeometry>
        </mxCell>
        <mxCell id="bSMWhBpGFYuzGzkaE9vz-4" style="edgeStyle=elbowEdgeStyle;curved=0;rounded=0;orthogonalLoop=1;jettySize=auto;html=1;elbow=vertical;fontSize=12;startSize=8;endSize=8;" edge="1" parent="1">
          <mxGeometry relative="1" as="geometry">
            <mxPoint x="-304.99956521739125" y="1788" as="sourcePoint" />
            <mxPoint x="-185.13" y="1788" as="targetPoint" />
            <Array as="points">
              <mxPoint x="-238.63" y="1788" />
            </Array>
          </mxGeometry>
        </mxCell>
        <mxCell id="bSMWhBpGFYuzGzkaE9vz-5" value="Отслеживание&lt;div&gt;активности&lt;/div&gt;&lt;div&gt;обучающегося&lt;/div&gt;" style="edgeLabel;html=1;align=center;verticalAlign=middle;resizable=0;points=[];fontSize=12;" vertex="1" connectable="0" parent="bSMWhBpGFYuzGzkaE9vz-4">
          <mxGeometry x="-0.1975" y="1" relative="1" as="geometry">
            <mxPoint x="10" y="1" as="offset" />
          </mxGeometry>
        </mxCell>
        <mxCell id="bSMWhBpGFYuzGzkaE9vz-6" value="Пользователь" style="shape=umlLifeline;perimeter=lifelinePerimeter;whiteSpace=wrap;html=1;container=1;dropTarget=0;collapsible=0;recursiveResize=0;outlineConnect=0;portConstraint=eastwest;newEdgeStyle={&quot;edgeStyle&quot;:&quot;elbowEdgeStyle&quot;,&quot;elbow&quot;:&quot;vertical&quot;,&quot;curved&quot;:0,&quot;rounded&quot;:0};" vertex="1" parent="1">
          <mxGeometry x="-356" y="1236" width="100" height="737" as="geometry" />
        </mxCell>
        <mxCell id="bSMWhBpGFYuzGzkaE9vz-7" style="edgeStyle=elbowEdgeStyle;curved=0;rounded=0;orthogonalLoop=1;jettySize=auto;html=1;elbow=vertical;fontSize=12;startSize=8;endSize=8;" edge="1" parent="1" source="bSMWhBpGFYuzGzkaE9vz-19" target="bSMWhBpGFYuzGzkaE9vz-27">
          <mxGeometry relative="1" as="geometry">
            <Array as="points">
              <mxPoint x="-69" y="1350" />
            </Array>
          </mxGeometry>
        </mxCell>
        <mxCell id="bSMWhBpGFYuzGzkaE9vz-8" value="Проверка&lt;div&gt;наличия курса&lt;/div&gt;" style="edgeLabel;html=1;align=center;verticalAlign=middle;resizable=0;points=[];fontSize=12;" vertex="1" connectable="0" parent="bSMWhBpGFYuzGzkaE9vz-7">
          <mxGeometry x="-0.2689" y="1" relative="1" as="geometry">
            <mxPoint x="-27" y="1" as="offset" />
          </mxGeometry>
        </mxCell>
        <mxCell id="bSMWhBpGFYuzGzkaE9vz-9" style="edgeStyle=elbowEdgeStyle;curved=0;rounded=0;orthogonalLoop=1;jettySize=auto;html=1;elbow=horizontal;fontSize=12;startSize=8;endSize=8;" edge="1" parent="1">
          <mxGeometry relative="1" as="geometry">
            <mxPoint x="-185.13" y="1616" as="sourcePoint" />
            <mxPoint x="-304.99956521739125" y="1616" as="targetPoint" />
            <Array as="points">
              <mxPoint x="-249.63" y="1616" />
            </Array>
          </mxGeometry>
        </mxCell>
        <mxCell id="bSMWhBpGFYuzGzkaE9vz-10" value="Подтверждение&lt;div&gt;регистрации&lt;/div&gt;" style="edgeLabel;html=1;align=center;verticalAlign=middle;resizable=0;points=[];fontSize=12;" vertex="1" connectable="0" parent="bSMWhBpGFYuzGzkaE9vz-9">
          <mxGeometry x="-0.0357" relative="1" as="geometry">
            <mxPoint x="2" as="offset" />
          </mxGeometry>
        </mxCell>
        <mxCell id="bSMWhBpGFYuzGzkaE9vz-11" style="edgeStyle=elbowEdgeStyle;curved=0;rounded=0;orthogonalLoop=1;jettySize=auto;html=1;elbow=vertical;fontSize=12;startSize=8;endSize=8;" edge="1" parent="1">
          <mxGeometry relative="1" as="geometry">
            <mxPoint x="-184.99956521739125" y="1688" as="sourcePoint" />
            <mxPoint x="-63.13" y="1688" as="targetPoint" />
            <Array as="points">
              <mxPoint x="-132.63" y="1688" />
            </Array>
          </mxGeometry>
        </mxCell>
        <mxCell id="bSMWhBpGFYuzGzkaE9vz-12" value="Передача данных&lt;div&gt;для оплаты&lt;/div&gt;" style="edgeLabel;html=1;align=center;verticalAlign=middle;resizable=0;points=[];fontSize=12;" vertex="1" connectable="0" parent="bSMWhBpGFYuzGzkaE9vz-11">
          <mxGeometry x="0.1182" y="1" relative="1" as="geometry">
            <mxPoint x="-10" y="-1" as="offset" />
          </mxGeometry>
        </mxCell>
        <mxCell id="bSMWhBpGFYuzGzkaE9vz-13" style="edgeStyle=elbowEdgeStyle;curved=0;rounded=0;orthogonalLoop=1;jettySize=auto;html=1;elbow=vertical;fontSize=12;startSize=8;endSize=8;" edge="1" parent="1">
          <mxGeometry relative="1" as="geometry">
            <mxPoint x="-185.13" y="1741" as="sourcePoint" />
            <mxPoint x="-304.99956521739125" y="1741" as="targetPoint" />
            <Array as="points">
              <mxPoint x="-240.63" y="1741" />
            </Array>
          </mxGeometry>
        </mxCell>
        <mxCell id="bSMWhBpGFYuzGzkaE9vz-14" value="Активация&lt;div&gt;курса&lt;/div&gt;" style="edgeLabel;html=1;align=center;verticalAlign=middle;resizable=0;points=[];fontSize=12;" vertex="1" connectable="0" parent="bSMWhBpGFYuzGzkaE9vz-13">
          <mxGeometry x="0.3333" y="1" relative="1" as="geometry">
            <mxPoint x="24" y="-1" as="offset" />
          </mxGeometry>
        </mxCell>
        <mxCell id="bSMWhBpGFYuzGzkaE9vz-15" style="edgeStyle=elbowEdgeStyle;curved=0;rounded=0;orthogonalLoop=1;jettySize=auto;html=1;elbow=vertical;fontSize=12;startSize=8;endSize=8;" edge="1" parent="1">
          <mxGeometry relative="1" as="geometry">
            <mxPoint x="-185.86956521739125" y="1864" as="sourcePoint" />
            <mxPoint x="48" y="1864" as="targetPoint" />
            <Array as="points">
              <mxPoint x="-60.5" y="1864" />
            </Array>
          </mxGeometry>
        </mxCell>
        <mxCell id="bSMWhBpGFYuzGzkaE9vz-16" value="Создание&lt;div&gt;сертификата&amp;nbsp;&lt;/div&gt;" style="edgeLabel;html=1;align=center;verticalAlign=middle;resizable=0;points=[];fontSize=12;" vertex="1" connectable="0" parent="bSMWhBpGFYuzGzkaE9vz-15">
          <mxGeometry x="-0.5555" y="-2" relative="1" as="geometry">
            <mxPoint as="offset" />
          </mxGeometry>
        </mxCell>
        <mxCell id="bSMWhBpGFYuzGzkaE9vz-17" style="edgeStyle=elbowEdgeStyle;curved=0;rounded=0;orthogonalLoop=1;jettySize=auto;html=1;elbow=vertical;fontSize=12;startSize=8;endSize=8;" edge="1" parent="1">
          <mxGeometry relative="1" as="geometry">
            <mxPoint x="-186" y="1938" as="sourcePoint" />
            <mxPoint x="-305.86956521739125" y="1938" as="targetPoint" />
            <Array as="points">
              <mxPoint x="-245.5" y="1938" />
            </Array>
          </mxGeometry>
        </mxCell>
        <mxCell id="bSMWhBpGFYuzGzkaE9vz-18" value="Выдача&lt;div&gt;сертификата&lt;/div&gt;" style="edgeLabel;html=1;align=center;verticalAlign=middle;resizable=0;points=[];fontSize=12;" vertex="1" connectable="0" parent="bSMWhBpGFYuzGzkaE9vz-17">
          <mxGeometry x="-0.317" y="2" relative="1" as="geometry">
            <mxPoint x="-9" as="offset" />
          </mxGeometry>
        </mxCell>
        <mxCell id="bSMWhBpGFYuzGzkaE9vz-19" value="Система" style="shape=umlLifeline;perimeter=lifelinePerimeter;whiteSpace=wrap;html=1;container=1;dropTarget=0;collapsible=0;recursiveResize=0;outlineConnect=0;portConstraint=eastwest;newEdgeStyle={&quot;edgeStyle&quot;:&quot;elbowEdgeStyle&quot;,&quot;elbow&quot;:&quot;vertical&quot;,&quot;curved&quot;:0,&quot;rounded&quot;:0};" vertex="1" parent="1">
          <mxGeometry x="-236" y="1236" width="100" height="744" as="geometry" />
        </mxCell>
        <mxCell id="bSMWhBpGFYuzGzkaE9vz-20" style="edgeStyle=elbowEdgeStyle;curved=0;rounded=0;orthogonalLoop=1;jettySize=auto;html=1;elbow=vertical;fontSize=12;startSize=8;endSize=8;" edge="1" parent="1">
          <mxGeometry relative="1" as="geometry">
            <mxPoint x="-63.13" y="1719.57" as="sourcePoint" />
            <mxPoint x="-184.99956521739125" y="1719.57" as="targetPoint" />
            <Array as="points">
              <mxPoint x="-117.63" y="1719.57" />
            </Array>
          </mxGeometry>
        </mxCell>
        <mxCell id="bSMWhBpGFYuzGzkaE9vz-21" value="Возвращение&amp;nbsp;&lt;div&gt;статуса оплаты&lt;/div&gt;" style="edgeLabel;html=1;align=center;verticalAlign=middle;resizable=0;points=[];fontSize=12;" vertex="1" connectable="0" parent="bSMWhBpGFYuzGzkaE9vz-20">
          <mxGeometry x="-0.4779" relative="1" as="geometry">
            <mxPoint x="-24" y="3" as="offset" />
          </mxGeometry>
        </mxCell>
        <mxCell id="bSMWhBpGFYuzGzkaE9vz-22" value="Платежный шлюз" style="shape=umlLifeline;perimeter=lifelinePerimeter;whiteSpace=wrap;html=1;container=1;dropTarget=0;collapsible=0;recursiveResize=0;outlineConnect=0;portConstraint=eastwest;newEdgeStyle={&quot;edgeStyle&quot;:&quot;elbowEdgeStyle&quot;,&quot;elbow&quot;:&quot;vertical&quot;,&quot;curved&quot;:0,&quot;rounded&quot;:0};" vertex="1" parent="1">
          <mxGeometry x="-114" y="1236" width="100" height="752" as="geometry" />
        </mxCell>
        <mxCell id="bSMWhBpGFYuzGzkaE9vz-23" style="edgeStyle=elbowEdgeStyle;curved=0;rounded=0;orthogonalLoop=1;jettySize=auto;html=1;elbow=vertical;fontSize=12;startSize=8;endSize=8;" edge="1" parent="1">
          <mxGeometry relative="1" as="geometry">
            <mxPoint x="48.43" y="1415" as="sourcePoint" />
            <mxPoint x="-185.43956521739125" y="1415" as="targetPoint" />
            <Array as="points">
              <mxPoint x="-48.07" y="1415" />
            </Array>
          </mxGeometry>
        </mxCell>
        <mxCell id="bSMWhBpGFYuzGzkaE9vz-24" value="Ответ о&lt;div&gt;доступности&lt;/div&gt;" style="edgeLabel;html=1;align=center;verticalAlign=middle;resizable=0;points=[];fontSize=12;" vertex="1" connectable="0" parent="bSMWhBpGFYuzGzkaE9vz-23">
          <mxGeometry x="-0.463" y="-1" relative="1" as="geometry">
            <mxPoint as="offset" />
          </mxGeometry>
        </mxCell>
        <mxCell id="bSMWhBpGFYuzGzkaE9vz-25" style="edgeStyle=elbowEdgeStyle;curved=0;rounded=0;orthogonalLoop=1;jettySize=auto;html=1;elbow=vertical;fontSize=12;startSize=8;endSize=8;" edge="1" parent="1">
          <mxGeometry relative="1" as="geometry">
            <mxPoint x="48" y="1907" as="sourcePoint" />
            <mxPoint x="-185.86956521739125" y="1907" as="targetPoint" />
            <Array as="points">
              <mxPoint x="-82.5" y="1907" />
            </Array>
          </mxGeometry>
        </mxCell>
        <mxCell id="bSMWhBpGFYuzGzkaE9vz-26" value="Отправка&lt;div&gt;сертификата&lt;/div&gt;" style="edgeLabel;html=1;align=center;verticalAlign=middle;resizable=0;points=[];fontSize=12;" vertex="1" connectable="0" parent="bSMWhBpGFYuzGzkaE9vz-25">
          <mxGeometry x="-0.6649" y="-1" relative="1" as="geometry">
            <mxPoint x="-14" y="2" as="offset" />
          </mxGeometry>
        </mxCell>
        <mxCell id="bSMWhBpGFYuzGzkaE9vz-27" value="База данных" style="shape=umlLifeline;perimeter=lifelinePerimeter;whiteSpace=wrap;html=1;container=1;dropTarget=0;collapsible=0;recursiveResize=0;outlineConnect=0;portConstraint=eastwest;newEdgeStyle={&quot;edgeStyle&quot;:&quot;elbowEdgeStyle&quot;,&quot;elbow&quot;:&quot;vertical&quot;,&quot;curved&quot;:0,&quot;rounded&quot;:0};" vertex="1" parent="1">
          <mxGeometry x="-2" y="1236" width="100" height="759" as="geometry" />
        </mxCell>
        <mxCell id="bSMWhBpGFYuzGzkaE9vz-28" value="Доступен" style="shape=umlFrame;whiteSpace=wrap;html=1;pointerEvents=0;fillColor=#d5e8d4;strokeColor=#82b366;" vertex="1" parent="1">
          <mxGeometry x="-185" y="1373" width="233" height="200" as="geometry" />
        </mxCell>
        <mxCell id="bSMWhBpGFYuzGzkaE9vz-29" value="Не доступен" style="shape=umlFrame;whiteSpace=wrap;html=1;pointerEvents=0;fillColor=#f8cecc;strokeColor=#b85450;" vertex="1" parent="1">
          <mxGeometry x="-305" y="1463" width="353" height="110" as="geometry" />
        </mxCell>
        <mxCell id="bSMWhBpGFYuzGzkaE9vz-30" style="edgeStyle=elbowEdgeStyle;curved=0;rounded=0;orthogonalLoop=1;jettySize=auto;html=1;elbow=vertical;fontSize=12;startSize=8;endSize=8;" edge="1" parent="1">
          <mxGeometry relative="1" as="geometry">
            <mxPoint x="48.87" y="1510" as="sourcePoint" />
            <mxPoint x="-184.99956521739125" y="1510" as="targetPoint" />
            <Array as="points">
              <mxPoint x="-47.63" y="1510" />
            </Array>
          </mxGeometry>
        </mxCell>
        <mxCell id="bSMWhBpGFYuzGzkaE9vz-31" value="Ответ о не&lt;div&gt;доступности&lt;/div&gt;" style="edgeLabel;html=1;align=center;verticalAlign=middle;resizable=0;points=[];fontSize=12;" vertex="1" connectable="0" parent="bSMWhBpGFYuzGzkaE9vz-30">
          <mxGeometry x="-0.463" y="-1" relative="1" as="geometry">
            <mxPoint as="offset" />
          </mxGeometry>
        </mxCell>
        <mxCell id="bSMWhBpGFYuzGzkaE9vz-32" value="Процесс&lt;div&gt;завершен&lt;/div&gt;" style="edgeStyle=elbowEdgeStyle;curved=0;rounded=0;orthogonalLoop=1;jettySize=auto;html=1;elbow=vertical;entryX=0.005;entryY=0.75;entryDx=0;entryDy=0;entryPerimeter=0;fontSize=12;startSize=8;endSize=8;" edge="1" parent="1" source="bSMWhBpGFYuzGzkaE9vz-19" target="bSMWhBpGFYuzGzkaE9vz-29">
          <mxGeometry relative="1" as="geometry" />
        </mxCell>
      </root>
    </mxGraphModel>
  </diagram>
</mxfile>
